<?xml version="1.0" ?><svg xmlns="http://www.w3.org/2000/svg" id="Layer_1" data-name="Layer 1" viewBox="0 0 128 128" width="70"><defs><style>
      .cls-1 {
        fill-rule: evenodd;
        stroke: #0832ff;
        stroke-width: 0px;
      }
    </style></defs><path id="path" class="cls-1" d="m90.67,21.33h-53.35c-8.83,0-16,7.16-16,16v53.33c0,8.84,7.17,16,16,16h53.35c8.83,0,16-7.16,16-16v-53.33c0-8.84-7.17-16-16-16Zm-6.72,35.23c3.4-.18,7.04.59,9.89,2.06,1.7.87,2.38,2.96,1.51,4.66-.87,1.71-2.96,2.38-4.67,1.51-1.73-.89-4.15-1.42-6.37-1.31-2.29.12-3.63.86-4.2,1.66-.83,1.19-1.11,2.56-.8,3.58.23.79,1.12,2.29,4.83,3.22,5.3,1.32,9.04,4.34,10.72,8.14,1.67,3.8,1.13,8.16-1.8,11.22-5.94,6.23-14.34,4.49-20.54.52-1.61-1.03-2.08-3.18-1.04-4.79,1.03-1.61,3.17-2.08,4.79-1.05,5.11,3.28,9.29,3.15,11.77.53.81-.84,1.12-2.16.48-3.63-.65-1.46-2.4-3.3-6.06-4.22-5.25-1.31-8.63-4.1-9.79-7.93-1.09-3.62.09-7.19,1.77-9.58,2.31-3.25,6.18-4.42,9.51-4.59Zm-40.86,1.3c-1.92,0-3.47,1.55-3.47,3.47s1.55,3.46,3.47,3.46h7.89v25.82c0,1.91,1.55,3.46,3.47,3.46s3.46-1.55,3.46-3.46v-25.82h7.84c1.92,0,3.47-1.55,3.47-3.46s-1.55-3.47-3.47-3.47h-22.66Z" style="fill:rgb(10, 45, 224)"/></svg>